<?xml version="1.0" encoding="UTF-8" standalone="no"?>
<!DOCTYPE svg PUBLIC "-//W3C//DTD SVG 1.1//EN"
 "http://www.w3.org/Graphics/SVG/1.1/DTD/svg11.dtd">
<!-- Generated by graphviz version 2.36.0 (20140111.2315)
 -->
<!-- Title: snakemake_dag Pages: 1 -->
<svg width="1979pt" height="908pt"
 viewBox="0.00 0.00 1979.00 908.00" xmlns="http://www.w3.org/2000/svg" xmlns:xlink="http://www.w3.org/1999/xlink">
<g id="graph0" class="graph" transform="scale(1 1) rotate(0) translate(4 904)">
<title>snakemake_dag</title>
<polygon fill="white" stroke="none" points="-4,4 -4,-904 1975,-904 1975,4 -4,4"/>
<!-- 0 -->
<g id="node1" class="node"><title>0</title>
<path fill="none" stroke="#566bd8" stroke-width="2" d="M930.5,-180C930.5,-180 857.5,-180 857.5,-180 851.5,-180 845.5,-174 845.5,-168 845.5,-168 845.5,-156 845.5,-156 845.5,-150 851.5,-144 857.5,-144 857.5,-144 930.5,-144 930.5,-144 936.5,-144 942.5,-150 942.5,-156 942.5,-156 942.5,-168 942.5,-168 942.5,-174 936.5,-180 930.5,-180"/>
<text text-anchor="middle" x="894" y="-159.5" font-family="sans" font-size="10.00">part_do_partition</text>
</g>
<!-- 40 -->
<g id="node41" class="node"><title>40</title>
<path fill="none" stroke="#56a2d8" stroke-width="2" d="M977.25,-108C977.25,-108 848.75,-108 848.75,-108 842.75,-108 836.75,-102 836.75,-96 836.75,-96 836.75,-84 836.75,-84 836.75,-78 842.75,-72 848.75,-72 848.75,-72 977.25,-72 977.25,-72 983.25,-72 989.25,-78 989.25,-84 989.25,-84 989.25,-96 989.25,-96 989.25,-102 983.25,-108 977.25,-108"/>
<text text-anchor="middle" x="913" y="-87.5" font-family="sans" font-size="10.00">part_rename_with_partitions</text>
</g>
<!-- 0&#45;&gt;40 -->
<g id="edge72" class="edge"><title>0&#45;&gt;40</title>
<path fill="none" stroke="grey" stroke-width="2" d="M898.697,-143.697C900.813,-135.898 903.362,-126.509 905.718,-117.829"/>
<polygon fill="grey" stroke="grey" stroke-width="2" points="909.116,-118.672 908.357,-108.104 902.36,-116.838 909.116,-118.672"/>
</g>
<!-- 1 -->
<g id="node2" class="node"><title>1</title>
<path fill="none" stroke="#d86656" stroke-width="2" d="M614.5,-540C614.5,-540 519.5,-540 519.5,-540 513.5,-540 507.5,-534 507.5,-528 507.5,-528 507.5,-516 507.5,-516 507.5,-510 513.5,-504 519.5,-504 519.5,-504 614.5,-504 614.5,-504 620.5,-504 626.5,-510 626.5,-516 626.5,-516 626.5,-528 626.5,-528 626.5,-534 620.5,-540 614.5,-540"/>
<text text-anchor="middle" x="567" y="-525" font-family="sans" font-size="10.00">diginorm_filter_abund</text>
<text text-anchor="middle" x="567" y="-514" font-family="sans" font-size="10.00">pair: pe_pe</text>
</g>
<!-- 7 -->
<g id="node8" class="node"><title>7</title>
<path fill="none" stroke="#56d86b" stroke-width="2" d="M637.25,-468C637.25,-468 496.75,-468 496.75,-468 490.75,-468 484.75,-462 484.75,-456 484.75,-456 484.75,-444 484.75,-444 484.75,-438 490.75,-432 496.75,-432 496.75,-432 637.25,-432 637.25,-432 643.25,-432 649.25,-438 649.25,-444 649.25,-444 649.25,-456 649.25,-456 649.25,-462 643.25,-468 637.25,-468"/>
<text text-anchor="middle" x="567" y="-447.5" font-family="sans" font-size="10.00">diginorm_extract_paired_reads</text>
</g>
<!-- 1&#45;&gt;7 -->
<g id="edge25" class="edge"><title>1&#45;&gt;7</title>
<path fill="none" stroke="grey" stroke-width="2" d="M567,-503.697C567,-495.983 567,-486.712 567,-478.112"/>
<polygon fill="grey" stroke="grey" stroke-width="2" points="570.5,-478.104 567,-468.104 563.5,-478.104 570.5,-478.104"/>
</g>
<!-- 2 -->
<g id="node3" class="node"><title>2</title>
<path fill="none" stroke="#56d8a2" stroke-width="2" d="M178,-252C178,-252 94,-252 94,-252 88,-252 82,-246 82,-240 82,-240 82,-228 82,-228 82,-222 88,-216 94,-216 94,-216 178,-216 178,-216 184,-216 190,-222 190,-228 190,-228 190,-240 190,-240 190,-246 184,-252 178,-252"/>
<text text-anchor="middle" x="136" y="-237" font-family="sans" font-size="10.00">raw_fastqc_sample</text>
<text text-anchor="middle" x="136" y="-226" font-family="sans" font-size="10.00">sample: pe2_1</text>
</g>
<!-- 6 -->
<g id="node7" class="node"><title>6</title>
<path fill="none" stroke="#d8c356" stroke-width="2" d="M1084,-36C1084,-36 1054,-36 1054,-36 1048,-36 1042,-30 1042,-24 1042,-24 1042,-12 1042,-12 1042,-6 1048,-0 1054,-0 1054,-0 1084,-0 1084,-0 1090,-0 1096,-6 1096,-12 1096,-12 1096,-24 1096,-24 1096,-30 1090,-36 1084,-36"/>
<text text-anchor="middle" x="1069" y="-15.5" font-family="sans" font-size="10.00">all</text>
</g>
<!-- 2&#45;&gt;6 -->
<g id="edge12" class="edge"><title>2&#45;&gt;6</title>
<path fill="none" stroke="grey" stroke-width="2" d="M137.518,-215.757C141.534,-181.71 155.714,-106.194 204,-72 272.266,-23.6572 874.706,-19.3093 1031.72,-19.0009"/>
<polygon fill="grey" stroke="grey" stroke-width="2" points="1031.83,-22.5009 1041.82,-18.9856 1031.82,-15.5009 1031.83,-22.5009"/>
</g>
<!-- 3 -->
<g id="node4" class="node"><title>3</title>
<path fill="none" stroke="#d87d56" stroke-width="2" d="M475.25,-612C475.25,-612 296.75,-612 296.75,-612 290.75,-612 284.75,-606 284.75,-600 284.75,-600 284.75,-588 284.75,-588 284.75,-582 290.75,-576 296.75,-576 296.75,-576 475.25,-576 475.25,-576 481.25,-576 487.25,-582 487.25,-588 487.25,-588 487.25,-600 487.25,-600 487.25,-606 481.25,-612 475.25,-612"/>
<text text-anchor="middle" x="386" y="-591.5" font-family="sans" font-size="10.00">diginorm_normalize_by_median_pe_pe</text>
</g>
<!-- 3&#45;&gt;1 -->
<g id="edge2" class="edge"><title>3&#45;&gt;1</title>
<path fill="none" stroke="grey" stroke-width="2" d="M430.278,-575.876C455.351,-566.179 486.896,-553.98 513.365,-543.743"/>
<polygon fill="grey" stroke="grey" stroke-width="2" points="514.802,-546.94 522.866,-540.068 512.277,-540.411 514.802,-546.94"/>
</g>
<!-- 4 -->
<g id="node5" class="node"><title>4</title>
<path fill="none" stroke="#d8b456" stroke-width="2" d="M1608.5,-756C1608.5,-756 1521.5,-756 1521.5,-756 1515.5,-756 1509.5,-750 1509.5,-744 1509.5,-744 1509.5,-732 1509.5,-732 1509.5,-726 1515.5,-720 1521.5,-720 1521.5,-720 1608.5,-720 1608.5,-720 1614.5,-720 1620.5,-726 1620.5,-732 1620.5,-732 1620.5,-744 1620.5,-744 1620.5,-750 1614.5,-756 1608.5,-756"/>
<text text-anchor="middle" x="1565" y="-735.5" font-family="sans" font-size="10.00">qc_trimmomatic_se</text>
</g>
<!-- 32 -->
<g id="node33" class="node"><title>32</title>
<path fill="none" stroke="#9fd856" stroke-width="2" d="M916,-684C916,-684 786,-684 786,-684 780,-684 774,-678 774,-672 774,-672 774,-660 774,-660 774,-654 780,-648 786,-648 786,-648 916,-648 916,-648 922,-648 928,-654 928,-660 928,-660 928,-672 928,-672 928,-678 922,-684 916,-684"/>
<text text-anchor="middle" x="851" y="-663.5" font-family="sans" font-size="10.00">diginorm_load_into_counting</text>
</g>
<!-- 4&#45;&gt;32 -->
<g id="edge58" class="edge"><title>4&#45;&gt;32</title>
<path fill="none" stroke="grey" stroke-width="2" d="M1509.27,-731.536C1385.51,-719.403 1086.99,-690.136 938.253,-675.554"/>
<polygon fill="grey" stroke="grey" stroke-width="2" points="938.536,-672.065 928.242,-674.573 937.853,-679.032 938.536,-672.065"/>
</g>
<!-- 33 -->
<g id="node34" class="node"><title>33</title>
<path fill="none" stroke="#59d856" stroke-width="2" d="M1600.5,-324C1600.5,-324 1563.5,-324 1563.5,-324 1557.5,-324 1551.5,-318 1551.5,-312 1551.5,-312 1551.5,-300 1551.5,-300 1551.5,-294 1557.5,-288 1563.5,-288 1563.5,-288 1600.5,-288 1600.5,-288 1606.5,-288 1612.5,-294 1612.5,-300 1612.5,-300 1612.5,-312 1612.5,-312 1612.5,-318 1606.5,-324 1600.5,-324"/>
<text text-anchor="middle" x="1582" y="-309" font-family="sans" font-size="10.00">qc_fastqc</text>
<text text-anchor="middle" x="1582" y="-298" font-family="sans" font-size="10.00">pair: se</text>
</g>
<!-- 4&#45;&gt;33 -->
<g id="edge61" class="edge"><title>4&#45;&gt;33</title>
<path fill="none" stroke="grey" stroke-width="2" d="M1574.53,-719.655C1588,-693.468 1611,-641.904 1611,-595 1611,-595 1611,-595 1611,-449 1611,-408.215 1599.37,-362.148 1590.84,-333.84"/>
<polygon fill="grey" stroke="grey" stroke-width="2" points="1594.18,-332.769 1587.87,-324.257 1587.49,-334.845 1594.18,-332.769"/>
</g>
<!-- 42 -->
<g id="node43" class="node"><title>42</title>
<path fill="none" stroke="#8fd856" stroke-width="2" d="M1533.25,-612C1533.25,-612 1372.75,-612 1372.75,-612 1366.75,-612 1360.75,-606 1360.75,-600 1360.75,-600 1360.75,-588 1360.75,-588 1360.75,-582 1366.75,-576 1372.75,-576 1372.75,-576 1533.25,-576 1533.25,-576 1539.25,-576 1545.25,-582 1545.25,-588 1545.25,-588 1545.25,-600 1545.25,-600 1545.25,-606 1539.25,-612 1533.25,-612"/>
<text text-anchor="middle" x="1453" y="-591.5" font-family="sans" font-size="10.00">diginorm_normalize_by_median_se</text>
</g>
<!-- 4&#45;&gt;42 -->
<g id="edge74" class="edge"><title>4&#45;&gt;42</title>
<path fill="none" stroke="grey" stroke-width="2" d="M1551.49,-719.871C1531.9,-695.031 1495.47,-648.846 1472.83,-620.142"/>
<polygon fill="grey" stroke="grey" stroke-width="2" points="1475.5,-617.873 1466.56,-612.189 1470,-622.208 1475.5,-617.873"/>
</g>
<!-- 5 -->
<g id="node6" class="node"><title>5</title>
<path fill="none" stroke="#d6d856" stroke-width="2" d="M430.25,-828C430.25,-828 341.75,-828 341.75,-828 335.75,-828 329.75,-822 329.75,-816 329.75,-816 329.75,-804 329.75,-804 329.75,-798 335.75,-792 341.75,-792 341.75,-792 430.25,-792 430.25,-792 436.25,-792 442.25,-798 442.25,-804 442.25,-804 442.25,-816 442.25,-816 442.25,-822 436.25,-828 430.25,-828"/>
<text text-anchor="middle" x="386" y="-807.5" font-family="sans" font-size="10.00">qc_trimmomatic_pe</text>
</g>
<!-- 10 -->
<g id="node11" class="node"><title>10</title>
<path fill="none" stroke="#d85656" stroke-width="2" d="M431.25,-756C431.25,-756 340.75,-756 340.75,-756 334.75,-756 328.75,-750 328.75,-744 328.75,-744 328.75,-732 328.75,-732 328.75,-726 334.75,-720 340.75,-720 340.75,-720 431.25,-720 431.25,-720 437.25,-720 443.25,-726 443.25,-732 443.25,-732 443.25,-744 443.25,-744 443.25,-750 437.25,-756 431.25,-756"/>
<text text-anchor="middle" x="386" y="-735.5" font-family="sans" font-size="10.00">qc_interleave_pe_pe</text>
</g>
<!-- 5&#45;&gt;10 -->
<g id="edge28" class="edge"><title>5&#45;&gt;10</title>
<path fill="none" stroke="grey" stroke-width="2" d="M386,-791.697C386,-783.983 386,-774.712 386,-766.112"/>
<polygon fill="grey" stroke="grey" stroke-width="2" points="389.5,-766.104 386,-756.104 382.5,-766.104 389.5,-766.104"/>
</g>
<!-- 14 -->
<g id="node15" class="node"><title>14</title>
<path fill="none" stroke="#56d8c9" stroke-width="2" d="M696.25,-612C696.25,-612 517.75,-612 517.75,-612 511.75,-612 505.75,-606 505.75,-600 505.75,-600 505.75,-588 505.75,-588 505.75,-582 511.75,-576 517.75,-576 517.75,-576 696.25,-576 696.25,-576 702.25,-576 708.25,-582 708.25,-588 708.25,-588 708.25,-600 708.25,-600 708.25,-606 702.25,-612 696.25,-612"/>
<text text-anchor="middle" x="607" y="-591.5" font-family="sans" font-size="10.00">diginorm_normalize_by_median_pe_se</text>
</g>
<!-- 5&#45;&gt;14 -->
<g id="edge34" class="edge"><title>5&#45;&gt;14</title>
<path fill="none" stroke="grey" stroke-width="2" d="M408.892,-791.781C421.873,-781.733 438.224,-768.591 452,-756 501.9,-710.392 555.675,-652.288 584.936,-619.823"/>
<polygon fill="grey" stroke="grey" stroke-width="2" points="587.753,-621.925 591.829,-612.145 582.544,-617.248 587.753,-621.925"/>
</g>
<!-- 30 -->
<g id="node31" class="node"><title>30</title>
<path fill="none" stroke="#59d856" stroke-width="2" d="M221.25,-684C221.25,-684 176.75,-684 176.75,-684 170.75,-684 164.75,-678 164.75,-672 164.75,-672 164.75,-660 164.75,-660 164.75,-654 170.75,-648 176.75,-648 176.75,-648 221.25,-648 221.25,-648 227.25,-648 233.25,-654 233.25,-660 233.25,-660 233.25,-672 233.25,-672 233.25,-678 227.25,-684 221.25,-684"/>
<text text-anchor="middle" x="199" y="-669" font-family="sans" font-size="10.00">qc_fastqc</text>
<text text-anchor="middle" x="199" y="-658" font-family="sans" font-size="10.00">pair: pe_se</text>
</g>
<!-- 5&#45;&gt;30 -->
<g id="edge53" class="edge"><title>5&#45;&gt;30</title>
<path fill="none" stroke="grey" stroke-width="2" d="M363.443,-791.871C330.028,-766.497 267.287,-718.854 229.708,-690.318"/>
<polygon fill="grey" stroke="grey" stroke-width="2" points="231.717,-687.449 221.637,-684.189 227.484,-693.024 231.717,-687.449"/>
</g>
<!-- 5&#45;&gt;32 -->
<g id="edge60" class="edge"><title>5&#45;&gt;32</title>
<path fill="none" stroke="grey" stroke-width="2" d="M442.09,-791.871C528.439,-765.502 693.544,-715.083 785.339,-687.051"/>
<polygon fill="grey" stroke="grey" stroke-width="2" points="786.532,-690.347 795.074,-684.079 784.487,-683.652 786.532,-690.347"/>
</g>
<!-- 15 -->
<g id="node16" class="node"><title>15</title>
<path fill="none" stroke="#56b1d8" stroke-width="2" d="M814.5,-396C814.5,-396 661.5,-396 661.5,-396 655.5,-396 649.5,-390 649.5,-384 649.5,-384 649.5,-372 649.5,-372 649.5,-366 655.5,-360 661.5,-360 661.5,-360 814.5,-360 814.5,-360 820.5,-360 826.5,-366 826.5,-372 826.5,-372 826.5,-384 826.5,-384 826.5,-390 820.5,-396 814.5,-396"/>
<text text-anchor="middle" x="738" y="-375.5" font-family="sans" font-size="10.00">diginorm_merge_pe_single_reads</text>
</g>
<!-- 7&#45;&gt;15 -->
<g id="edge35" class="edge"><title>7&#45;&gt;15</title>
<path fill="none" stroke="grey" stroke-width="2" d="M608.831,-431.876C632.416,-422.222 662.06,-410.087 686.999,-399.878"/>
<polygon fill="grey" stroke="grey" stroke-width="2" points="688.376,-403.096 696.305,-396.068 685.724,-396.618 688.376,-403.096"/>
</g>
<!-- 26 -->
<g id="node27" class="node"><title>26</title>
<path fill="none" stroke="#567bd8" stroke-width="2" d="M552.25,-324C552.25,-324 483.75,-324 483.75,-324 477.75,-324 471.75,-318 471.75,-312 471.75,-312 471.75,-300 471.75,-300 471.75,-294 477.75,-288 483.75,-288 483.75,-288 552.25,-288 552.25,-288 558.25,-288 564.25,-294 564.25,-300 564.25,-300 564.25,-312 564.25,-312 564.25,-318 558.25,-324 552.25,-324"/>
<text text-anchor="middle" x="518" y="-309" font-family="sans" font-size="10.00">diginorm_fastqc</text>
<text text-anchor="middle" x="518" y="-298" font-family="sans" font-size="10.00">pair: pe_pe</text>
</g>
<!-- 7&#45;&gt;26 -->
<g id="edge48" class="edge"><title>7&#45;&gt;26</title>
<path fill="none" stroke="grey" stroke-width="2" d="M530.486,-431.924C516.402,-423.293 501.824,-411.349 494,-396 483.85,-376.088 491.917,-351.414 501.346,-333.1"/>
<polygon fill="grey" stroke="grey" stroke-width="2" points="504.514,-334.603 506.311,-324.162 498.395,-331.204 504.514,-334.603"/>
</g>
<!-- 41 -->
<g id="node42" class="node"><title>41</title>
<path fill="none" stroke="#d88d56" stroke-width="2" d="M619,-396C619,-396 515,-396 515,-396 509,-396 503,-390 503,-384 503,-384 503,-372 503,-372 503,-366 509,-360 515,-360 515,-360 619,-360 619,-360 625,-360 631,-366 631,-372 631,-372 631,-384 631,-384 631,-390 625,-396 619,-396"/>
<text text-anchor="middle" x="567" y="-375.5" font-family="sans" font-size="10.00">assembly_split_pe_files</text>
</g>
<!-- 7&#45;&gt;41 -->
<g id="edge73" class="edge"><title>7&#45;&gt;41</title>
<path fill="none" stroke="grey" stroke-width="2" d="M567,-431.697C567,-423.983 567,-414.712 567,-406.112"/>
<polygon fill="grey" stroke="grey" stroke-width="2" points="570.5,-406.104 567,-396.104 563.5,-406.104 570.5,-406.104"/>
</g>
<!-- 8 -->
<g id="node9" class="node"><title>8</title>
<path fill="none" stroke="#56d8a2" stroke-width="2" d="M96,-756C96,-756 12,-756 12,-756 6,-756 0,-750 0,-744 0,-744 0,-732 0,-732 0,-726 6,-720 12,-720 12,-720 96,-720 96,-720 102,-720 108,-726 108,-732 108,-732 108,-744 108,-744 108,-750 102,-756 96,-756"/>
<text text-anchor="middle" x="54" y="-741" font-family="sans" font-size="10.00">raw_fastqc_sample</text>
<text text-anchor="middle" x="54" y="-730" font-family="sans" font-size="10.00">sample: pe2_2</text>
</g>
<!-- 8&#45;&gt;6 -->
<g id="edge19" class="edge"><title>8&#45;&gt;6</title>
<path fill="none" stroke="grey" stroke-width="2" d="M54,-719.951C54,-693.292 54,-640.115 54,-595 54,-595 54,-595 54,-161 54,-96.3704 108.484,-94.6903 169,-72 250.572,-41.4147 870.95,-23.9425 1031.28,-19.9076"/>
<polygon fill="grey" stroke="grey" stroke-width="2" points="1031.68,-23.3988 1041.59,-19.6507 1031.5,-16.401 1031.68,-23.3988"/>
</g>
<!-- 9 -->
<g id="node10" class="node"><title>9</title>
<path fill="none" stroke="#56d8a2" stroke-width="2" d="M1959,-108C1959,-108 1875,-108 1875,-108 1869,-108 1863,-102 1863,-96 1863,-96 1863,-84 1863,-84 1863,-78 1869,-72 1875,-72 1875,-72 1959,-72 1959,-72 1965,-72 1971,-78 1971,-84 1971,-84 1971,-96 1971,-96 1971,-102 1965,-108 1959,-108"/>
<text text-anchor="middle" x="1917" y="-93" font-family="sans" font-size="10.00">raw_fastqc_sample</text>
<text text-anchor="middle" x="1917" y="-82" font-family="sans" font-size="10.00">sample: pe1_1</text>
</g>
<!-- 9&#45;&gt;6 -->
<g id="edge21" class="edge"><title>9&#45;&gt;6</title>
<path fill="none" stroke="grey" stroke-width="2" d="M1862.99,-79.9238C1844.63,-77.0719 1823.96,-74.1182 1805,-72 1537.93,-42.1627 1214.38,-25.6379 1106.22,-20.6421"/>
<polygon fill="grey" stroke="grey" stroke-width="2" points="1106.29,-17.1418 1096.14,-20.1814 1105.97,-24.1345 1106.29,-17.1418"/>
</g>
<!-- 10&#45;&gt;3 -->
<g id="edge5" class="edge"><title>10&#45;&gt;3</title>
<path fill="none" stroke="grey" stroke-width="2" d="M386,-719.871C386,-695.67 386,-651.211 386,-622.393"/>
<polygon fill="grey" stroke="grey" stroke-width="2" points="389.5,-622.189 386,-612.189 382.5,-622.189 389.5,-622.189"/>
</g>
<!-- 10&#45;&gt;32 -->
<g id="edge57" class="edge"><title>10&#45;&gt;32</title>
<path fill="none" stroke="grey" stroke-width="2" d="M443.485,-728.346C523.783,-716.258 670.189,-694.219 763.917,-680.109"/>
<polygon fill="grey" stroke="grey" stroke-width="2" points="764.58,-683.549 773.947,-678.599 763.538,-676.627 764.58,-683.549"/>
</g>
<!-- 34 -->
<g id="node35" class="node"><title>34</title>
<path fill="none" stroke="#59d856" stroke-width="2" d="M358,-468C358,-468 312,-468 312,-468 306,-468 300,-462 300,-456 300,-456 300,-444 300,-444 300,-438 306,-432 312,-432 312,-432 358,-432 358,-432 364,-432 370,-438 370,-444 370,-444 370,-456 370,-456 370,-462 364,-468 358,-468"/>
<text text-anchor="middle" x="335" y="-453" font-family="sans" font-size="10.00">qc_fastqc</text>
<text text-anchor="middle" x="335" y="-442" font-family="sans" font-size="10.00">pair: pe_pe</text>
</g>
<!-- 10&#45;&gt;34 -->
<g id="edge62" class="edge"><title>10&#45;&gt;34</title>
<path fill="none" stroke="grey" stroke-width="2" d="M362.769,-719.773C335.722,-698.111 292.523,-658.122 275,-612 256.892,-564.337 289.714,-508.546 313.528,-476.73"/>
<polygon fill="grey" stroke="grey" stroke-width="2" points="316.606,-478.471 319.956,-468.419 311.069,-474.188 316.606,-478.471"/>
</g>
<!-- 11 -->
<g id="node12" class="node"><title>11</title>
<path fill="none" stroke="#567bd8" stroke-width="2" d="M1139.25,-252C1139.25,-252 1070.75,-252 1070.75,-252 1064.75,-252 1058.75,-246 1058.75,-240 1058.75,-240 1058.75,-228 1058.75,-228 1058.75,-222 1064.75,-216 1070.75,-216 1070.75,-216 1139.25,-216 1139.25,-216 1145.25,-216 1151.25,-222 1151.25,-228 1151.25,-228 1151.25,-240 1151.25,-240 1151.25,-246 1145.25,-252 1139.25,-252"/>
<text text-anchor="middle" x="1105" y="-237" font-family="sans" font-size="10.00">diginorm_fastqc</text>
<text text-anchor="middle" x="1105" y="-226" font-family="sans" font-size="10.00">pair: se</text>
</g>
<!-- 11&#45;&gt;6 -->
<g id="edge14" class="edge"><title>11&#45;&gt;6</title>
<path fill="none" stroke="grey" stroke-width="2" d="M1102.11,-215.849C1095.87,-178.753 1081.08,-90.8101 1073.56,-46.1027"/>
<polygon fill="grey" stroke="grey" stroke-width="2" points="1077.01,-45.5132 1071.9,-36.2325 1070.11,-46.6745 1077.01,-45.5132"/>
</g>
<!-- 12 -->
<g id="node13" class="node"><title>12</title>
<path fill="none" stroke="#d88d56" stroke-width="2" d="M961,-396C961,-396 857,-396 857,-396 851,-396 845,-390 845,-384 845,-384 845,-372 845,-372 845,-366 851,-360 857,-360 857,-360 961,-360 961,-360 967,-360 973,-366 973,-372 973,-372 973,-384 973,-384 973,-390 967,-396 961,-396"/>
<text text-anchor="middle" x="909" y="-375.5" font-family="sans" font-size="10.00">assembly_split_pe_files</text>
</g>
<!-- 36 -->
<g id="node37" class="node"><title>36</title>
<path fill="none" stroke="#c6d856" stroke-width="2" d="M961,-324C961,-324 815,-324 815,-324 809,-324 803,-318 803,-312 803,-312 803,-300 803,-300 803,-294 809,-288 815,-288 815,-288 961,-288 961,-288 967,-288 973,-294 973,-300 973,-300 973,-312 973,-312 973,-318 967,-324 961,-324"/>
<text text-anchor="middle" x="888" y="-303.5" font-family="sans" font-size="10.00">assembly_merge_right_and_left</text>
</g>
<!-- 12&#45;&gt;36 -->
<g id="edge63" class="edge"><title>12&#45;&gt;36</title>
<path fill="none" stroke="grey" stroke-width="2" d="M903.809,-359.697C901.469,-351.898 898.653,-342.509 896.049,-333.829"/>
<polygon fill="grey" stroke="grey" stroke-width="2" points="899.357,-332.677 893.131,-324.104 892.652,-334.688 899.357,-332.677"/>
</g>
<!-- 13 -->
<g id="node14" class="node"><title>13</title>
<path fill="none" stroke="#d86656" stroke-width="2" d="M1020.5,-540C1020.5,-540 925.5,-540 925.5,-540 919.5,-540 913.5,-534 913.5,-528 913.5,-528 913.5,-516 913.5,-516 913.5,-510 919.5,-504 925.5,-504 925.5,-504 1020.5,-504 1020.5,-504 1026.5,-504 1032.5,-510 1032.5,-516 1032.5,-516 1032.5,-528 1032.5,-528 1032.5,-534 1026.5,-540 1020.5,-540"/>
<text text-anchor="middle" x="973" y="-525" font-family="sans" font-size="10.00">diginorm_filter_abund</text>
<text text-anchor="middle" x="973" y="-514" font-family="sans" font-size="10.00">pair: pe_pe</text>
</g>
<!-- 29 -->
<g id="node30" class="node"><title>29</title>
<path fill="none" stroke="#56d86b" stroke-width="2" d="M1056.25,-468C1056.25,-468 915.75,-468 915.75,-468 909.75,-468 903.75,-462 903.75,-456 903.75,-456 903.75,-444 903.75,-444 903.75,-438 909.75,-432 915.75,-432 915.75,-432 1056.25,-432 1056.25,-432 1062.25,-432 1068.25,-438 1068.25,-444 1068.25,-444 1068.25,-456 1068.25,-456 1068.25,-462 1062.25,-468 1056.25,-468"/>
<text text-anchor="middle" x="986" y="-447.5" font-family="sans" font-size="10.00">diginorm_extract_paired_reads</text>
</g>
<!-- 13&#45;&gt;29 -->
<g id="edge52" class="edge"><title>13&#45;&gt;29</title>
<path fill="none" stroke="grey" stroke-width="2" d="M976.213,-503.697C977.646,-495.983 979.368,-486.712 980.965,-478.112"/>
<polygon fill="grey" stroke="grey" stroke-width="2" points="984.439,-478.575 982.823,-468.104 977.556,-477.297 984.439,-478.575"/>
</g>
<!-- 19 -->
<g id="node20" class="node"><title>19</title>
<path fill="none" stroke="#d86656" stroke-width="2" d="M785.5,-540C785.5,-540 690.5,-540 690.5,-540 684.5,-540 678.5,-534 678.5,-528 678.5,-528 678.5,-516 678.5,-516 678.5,-510 684.5,-504 690.5,-504 690.5,-504 785.5,-504 785.5,-504 791.5,-504 797.5,-510 797.5,-516 797.5,-516 797.5,-528 797.5,-528 797.5,-534 791.5,-540 785.5,-540"/>
<text text-anchor="middle" x="738" y="-525" font-family="sans" font-size="10.00">diginorm_filter_abund</text>
<text text-anchor="middle" x="738" y="-514" font-family="sans" font-size="10.00">pair: pe_se</text>
</g>
<!-- 14&#45;&gt;19 -->
<g id="edge41" class="edge"><title>14&#45;&gt;19</title>
<path fill="none" stroke="grey" stroke-width="2" d="M639.046,-575.876C656.492,-566.554 678.265,-554.919 696.943,-544.939"/>
<polygon fill="grey" stroke="grey" stroke-width="2" points="698.66,-547.99 705.831,-540.19 695.361,-541.816 698.66,-547.99"/>
</g>
<!-- 15&#45;&gt;36 -->
<g id="edge67" class="edge"><title>15&#45;&gt;36</title>
<path fill="none" stroke="grey" stroke-width="2" d="M774.694,-359.876C795.018,-350.392 820.471,-338.513 842.102,-328.419"/>
<polygon fill="grey" stroke="grey" stroke-width="2" points="843.843,-331.469 851.425,-324.068 840.883,-325.126 843.843,-331.469"/>
</g>
<!-- 45 -->
<g id="node46" class="node"><title>45</title>
<path fill="none" stroke="#567bd8" stroke-width="2" d="M772.25,-324C772.25,-324 703.75,-324 703.75,-324 697.75,-324 691.75,-318 691.75,-312 691.75,-312 691.75,-300 691.75,-300 691.75,-294 697.75,-288 703.75,-288 703.75,-288 772.25,-288 772.25,-288 778.25,-288 784.25,-294 784.25,-300 784.25,-300 784.25,-312 784.25,-312 784.25,-318 778.25,-324 772.25,-324"/>
<text text-anchor="middle" x="738" y="-309" font-family="sans" font-size="10.00">diginorm_fastqc</text>
<text text-anchor="middle" x="738" y="-298" font-family="sans" font-size="10.00">pair: pe_se</text>
</g>
<!-- 15&#45;&gt;45 -->
<g id="edge78" class="edge"><title>15&#45;&gt;45</title>
<path fill="none" stroke="grey" stroke-width="2" d="M738,-359.697C738,-351.983 738,-342.712 738,-334.112"/>
<polygon fill="grey" stroke="grey" stroke-width="2" points="741.5,-334.104 738,-324.104 734.5,-334.104 741.5,-334.104"/>
</g>
<!-- 16 -->
<g id="node17" class="node"><title>16</title>
<path fill="none" stroke="#56d8b1" stroke-width="2" d="M935.5,-252C935.5,-252 844.5,-252 844.5,-252 838.5,-252 832.5,-246 832.5,-240 832.5,-240 832.5,-228 832.5,-228 832.5,-222 838.5,-216 844.5,-216 844.5,-216 935.5,-216 935.5,-216 941.5,-216 947.5,-222 947.5,-228 947.5,-228 947.5,-240 947.5,-240 947.5,-246 941.5,-252 935.5,-252"/>
<text text-anchor="middle" x="890" y="-231.5" font-family="sans" font-size="10.00">assembly_run_trinity</text>
</g>
<!-- 16&#45;&gt;0 -->
<g id="edge1" class="edge"><title>16&#45;&gt;0</title>
<path fill="none" stroke="grey" stroke-width="2" d="M890.989,-215.697C891.43,-207.983 891.959,-198.712 892.451,-190.112"/>
<polygon fill="grey" stroke="grey" stroke-width="2" points="895.946,-190.288 893.023,-180.104 888.958,-189.888 895.946,-190.288"/>
</g>
<!-- 17 -->
<g id="node18" class="node"><title>17</title>
<path fill="none" stroke="#56c9d8" stroke-width="2" stroke-dasharray="5,2" d="M1679,-828C1679,-828 1595,-828 1595,-828 1589,-828 1583,-822 1583,-816 1583,-816 1583,-804 1583,-804 1583,-798 1589,-792 1595,-792 1595,-792 1679,-792 1679,-792 1685,-792 1691,-798 1691,-804 1691,-804 1691,-816 1691,-816 1691,-822 1685,-828 1679,-828"/>
<text text-anchor="middle" x="1637" y="-813" font-family="sans" font-size="10.00">raw_make_links_se</text>
<text text-anchor="middle" x="1637" y="-802" font-family="sans" font-size="10.00">sample: se3</text>
</g>
<!-- 17&#45;&gt;4 -->
<g id="edge7" class="edge"><title>17&#45;&gt;4</title>
<path fill="none" stroke="grey" stroke-width="2" d="M1619.2,-791.697C1610.4,-783.135 1599.62,-772.656 1590,-763.304"/>
<polygon fill="grey" stroke="grey" stroke-width="2" points="1592.2,-760.566 1582.59,-756.104 1587.32,-765.585 1592.2,-760.566"/>
</g>
<!-- 23 -->
<g id="node24" class="node"><title>23</title>
<path fill="none" stroke="#56d8a2" stroke-width="2" d="M1773,-684C1773,-684 1689,-684 1689,-684 1683,-684 1677,-678 1677,-672 1677,-672 1677,-660 1677,-660 1677,-654 1683,-648 1689,-648 1689,-648 1773,-648 1773,-648 1779,-648 1785,-654 1785,-660 1785,-660 1785,-672 1785,-672 1785,-678 1779,-684 1773,-684"/>
<text text-anchor="middle" x="1731" y="-663.5" font-family="sans" font-size="10.00">raw_fastqc_sample</text>
</g>
<!-- 17&#45;&gt;23 -->
<g id="edge44" class="edge"><title>17&#45;&gt;23</title>
<path fill="none" stroke="grey" stroke-width="2" d="M1648.34,-791.871C1664.64,-767.244 1694.83,-721.638 1713.87,-692.885"/>
<polygon fill="grey" stroke="grey" stroke-width="2" points="1717.02,-694.46 1719.62,-684.189 1711.18,-690.596 1717.02,-694.46"/>
</g>
<!-- 18 -->
<g id="node19" class="node"><title>18</title>
<path fill="none" stroke="#d86656" stroke-width="2" d="M1296.5,-540C1296.5,-540 1201.5,-540 1201.5,-540 1195.5,-540 1189.5,-534 1189.5,-528 1189.5,-528 1189.5,-516 1189.5,-516 1189.5,-510 1195.5,-504 1201.5,-504 1201.5,-504 1296.5,-504 1296.5,-504 1302.5,-504 1308.5,-510 1308.5,-516 1308.5,-516 1308.5,-528 1308.5,-528 1308.5,-534 1302.5,-540 1296.5,-540"/>
<text text-anchor="middle" x="1249" y="-525" font-family="sans" font-size="10.00">diginorm_filter_abund</text>
<text text-anchor="middle" x="1249" y="-514" font-family="sans" font-size="10.00">pair: pe_se</text>
</g>
<!-- 37 -->
<g id="node38" class="node"><title>37</title>
<path fill="none" stroke="#56b1d8" stroke-width="2" d="M1376.5,-396C1376.5,-396 1223.5,-396 1223.5,-396 1217.5,-396 1211.5,-390 1211.5,-384 1211.5,-384 1211.5,-372 1211.5,-372 1211.5,-366 1217.5,-360 1223.5,-360 1223.5,-360 1376.5,-360 1376.5,-360 1382.5,-360 1388.5,-366 1388.5,-372 1388.5,-372 1388.5,-384 1388.5,-384 1388.5,-390 1382.5,-396 1376.5,-396"/>
<text text-anchor="middle" x="1300" y="-375.5" font-family="sans" font-size="10.00">diginorm_merge_pe_single_reads</text>
</g>
<!-- 18&#45;&gt;37 -->
<g id="edge68" class="edge"><title>18&#45;&gt;37</title>
<path fill="none" stroke="grey" stroke-width="2" d="M1255.15,-503.871C1263.92,-479.457 1280.09,-434.426 1290.43,-405.635"/>
<polygon fill="grey" stroke="grey" stroke-width="2" points="1293.74,-406.784 1293.83,-396.189 1287.15,-404.418 1293.74,-406.784"/>
</g>
<!-- 19&#45;&gt;15 -->
<g id="edge36" class="edge"><title>19&#45;&gt;15</title>
<path fill="none" stroke="grey" stroke-width="2" d="M738,-503.871C738,-479.67 738,-435.211 738,-406.393"/>
<polygon fill="grey" stroke="grey" stroke-width="2" points="741.5,-406.189 738,-396.189 734.5,-406.189 741.5,-406.189"/>
</g>
<!-- 20 -->
<g id="node21" class="node"><title>20</title>
<path fill="none" stroke="#d6d856" stroke-width="2" d="M1285.25,-828C1285.25,-828 1196.75,-828 1196.75,-828 1190.75,-828 1184.75,-822 1184.75,-816 1184.75,-816 1184.75,-804 1184.75,-804 1184.75,-798 1190.75,-792 1196.75,-792 1196.75,-792 1285.25,-792 1285.25,-792 1291.25,-792 1297.25,-798 1297.25,-804 1297.25,-804 1297.25,-816 1297.25,-816 1297.25,-822 1291.25,-828 1285.25,-828"/>
<text text-anchor="middle" x="1241" y="-807.5" font-family="sans" font-size="10.00">qc_trimmomatic_pe</text>
</g>
<!-- 27 -->
<g id="node28" class="node"><title>27</title>
<path fill="none" stroke="#56d8c9" stroke-width="2" d="M1330.25,-612C1330.25,-612 1151.75,-612 1151.75,-612 1145.75,-612 1139.75,-606 1139.75,-600 1139.75,-600 1139.75,-588 1139.75,-588 1139.75,-582 1145.75,-576 1151.75,-576 1151.75,-576 1330.25,-576 1330.25,-576 1336.25,-576 1342.25,-582 1342.25,-588 1342.25,-588 1342.25,-600 1342.25,-600 1342.25,-606 1336.25,-612 1330.25,-612"/>
<text text-anchor="middle" x="1241" y="-591.5" font-family="sans" font-size="10.00">diginorm_normalize_by_median_pe_se</text>
</g>
<!-- 20&#45;&gt;27 -->
<g id="edge50" class="edge"><title>20&#45;&gt;27</title>
<path fill="none" stroke="grey" stroke-width="2" d="M1241,-791.849C1241,-754.832 1241,-667.181 1241,-622.386"/>
<polygon fill="grey" stroke="grey" stroke-width="2" points="1244.5,-622.232 1241,-612.232 1237.5,-622.232 1244.5,-622.232"/>
</g>
<!-- 20&#45;&gt;32 -->
<g id="edge59" class="edge"><title>20&#45;&gt;32</title>
<path fill="none" stroke="grey" stroke-width="2" d="M1184.35,-796.19C1145.02,-786.672 1091.7,-772.514 1046,-756 991.891,-736.446 932.015,-708.049 893.074,-688.623"/>
<polygon fill="grey" stroke="grey" stroke-width="2" points="894.633,-685.489 884.126,-684.133 891.494,-691.746 894.633,-685.489"/>
</g>
<!-- 38 -->
<g id="node39" class="node"><title>38</title>
<path fill="none" stroke="#d85656" stroke-width="2" d="M1157.25,-756C1157.25,-756 1066.75,-756 1066.75,-756 1060.75,-756 1054.75,-750 1054.75,-744 1054.75,-744 1054.75,-732 1054.75,-732 1054.75,-726 1060.75,-720 1066.75,-720 1066.75,-720 1157.25,-720 1157.25,-720 1163.25,-720 1169.25,-726 1169.25,-732 1169.25,-732 1169.25,-744 1169.25,-744 1169.25,-750 1163.25,-756 1157.25,-756"/>
<text text-anchor="middle" x="1112" y="-735.5" font-family="sans" font-size="10.00">qc_interleave_pe_pe</text>
</g>
<!-- 20&#45;&gt;38 -->
<g id="edge70" class="edge"><title>20&#45;&gt;38</title>
<path fill="none" stroke="grey" stroke-width="2" d="M1209.44,-791.876C1192.34,-782.596 1171.02,-771.025 1152.68,-761.075"/>
<polygon fill="grey" stroke="grey" stroke-width="2" points="1154.14,-757.883 1143.68,-756.19 1150.8,-764.035 1154.14,-757.883"/>
</g>
<!-- 44 -->
<g id="node45" class="node"><title>44</title>
<path fill="none" stroke="#59d856" stroke-width="2" d="M1663.25,-180C1663.25,-180 1618.75,-180 1618.75,-180 1612.75,-180 1606.75,-174 1606.75,-168 1606.75,-168 1606.75,-156 1606.75,-156 1606.75,-150 1612.75,-144 1618.75,-144 1618.75,-144 1663.25,-144 1663.25,-144 1669.25,-144 1675.25,-150 1675.25,-156 1675.25,-156 1675.25,-168 1675.25,-168 1675.25,-174 1669.25,-180 1663.25,-180"/>
<text text-anchor="middle" x="1641" y="-165" font-family="sans" font-size="10.00">qc_fastqc</text>
<text text-anchor="middle" x="1641" y="-154" font-family="sans" font-size="10.00">pair: pe_se</text>
</g>
<!-- 20&#45;&gt;44 -->
<g id="edge77" class="edge"><title>20&#45;&gt;44</title>
<path fill="none" stroke="grey" stroke-width="2" d="M1297.47,-808.933C1393.24,-807.611 1581.74,-799.394 1629,-756 1658.86,-728.581 1649,-707.542 1649,-667 1649,-667 1649,-667 1649,-305 1649,-264.933 1645.79,-218.606 1643.43,-190.054"/>
<polygon fill="grey" stroke="grey" stroke-width="2" points="1646.91,-189.7 1642.58,-180.032 1639.94,-190.292 1646.91,-189.7"/>
</g>
<!-- 21 -->
<g id="node22" class="node"><title>21</title>
<path fill="none" stroke="#568ad8" stroke-width="2" d="M1181,-396C1181,-396 1041,-396 1041,-396 1035,-396 1029,-390 1029,-384 1029,-384 1029,-372 1029,-372 1029,-366 1035,-360 1041,-360 1041,-360 1181,-360 1181,-360 1187,-360 1193,-366 1193,-372 1193,-372 1193,-384 1193,-384 1193,-390 1187,-396 1181,-396"/>
<text text-anchor="middle" x="1111" y="-375.5" font-family="sans" font-size="10.00">dignorm_get_former_se_reads</text>
</g>
<!-- 21&#45;&gt;11 -->
<g id="edge29" class="edge"><title>21&#45;&gt;11</title>
<path fill="none" stroke="grey" stroke-width="2" d="M1110.28,-359.871C1109.25,-335.67 1107.38,-291.211 1106.16,-262.393"/>
<polygon fill="grey" stroke="grey" stroke-width="2" points="1109.65,-262.033 1105.73,-252.189 1102.65,-262.328 1109.65,-262.033"/>
</g>
<!-- 21&#45;&gt;36 -->
<g id="edge65" class="edge"><title>21&#45;&gt;36</title>
<path fill="none" stroke="grey" stroke-width="2" d="M1056.73,-359.966C1025.17,-350.057 985.209,-337.514 952.1,-327.121"/>
<polygon fill="grey" stroke="grey" stroke-width="2" points="953.099,-323.766 942.51,-324.111 951.003,-330.445 953.099,-323.766"/>
</g>
<!-- 22 -->
<g id="node23" class="node"><title>22</title>
<path fill="none" stroke="#56d88a" stroke-width="2" stroke-dasharray="5,2" d="M1899.25,-900C1899.25,-900 1814.75,-900 1814.75,-900 1808.75,-900 1802.75,-894 1802.75,-888 1802.75,-888 1802.75,-876 1802.75,-876 1802.75,-870 1808.75,-864 1814.75,-864 1814.75,-864 1899.25,-864 1899.25,-864 1905.25,-864 1911.25,-870 1911.25,-876 1911.25,-876 1911.25,-888 1911.25,-888 1911.25,-894 1905.25,-900 1899.25,-900"/>
<text text-anchor="middle" x="1857" y="-885" font-family="sans" font-size="10.00">raw_make_links_pe</text>
<text text-anchor="middle" x="1857" y="-874" font-family="sans" font-size="10.00">sample: pe1</text>
</g>
<!-- 22&#45;&gt;9 -->
<g id="edge27" class="edge"><title>22&#45;&gt;9</title>
<path fill="none" stroke="grey" stroke-width="2" d="M1875.2,-863.598C1899.36,-838.53 1939,-789.673 1939,-739 1939,-739 1939,-739 1939,-233 1939,-192.74 1930.26,-146.808 1923.79,-118.355"/>
<polygon fill="grey" stroke="grey" stroke-width="2" points="1927.14,-117.293 1921.45,-108.354 1920.32,-118.889 1927.14,-117.293"/>
</g>
<!-- 22&#45;&gt;20 -->
<g id="edge42" class="edge"><title>22&#45;&gt;20</title>
<path fill="none" stroke="grey" stroke-width="2" d="M1802.6,-874.819C1689.64,-861.982 1429.98,-832.475 1307.39,-818.544"/>
<polygon fill="grey" stroke="grey" stroke-width="2" points="1307.71,-815.059 1297.38,-817.407 1306.92,-822.014 1307.71,-815.059"/>
</g>
<!-- 39 -->
<g id="node40" class="node"><title>39</title>
<path fill="none" stroke="#56d8a2" stroke-width="2" d="M1899,-684C1899,-684 1815,-684 1815,-684 1809,-684 1803,-678 1803,-672 1803,-672 1803,-660 1803,-660 1803,-654 1809,-648 1815,-648 1815,-648 1899,-648 1899,-648 1905,-648 1911,-654 1911,-660 1911,-660 1911,-672 1911,-672 1911,-678 1905,-684 1899,-684"/>
<text text-anchor="middle" x="1857" y="-669" font-family="sans" font-size="10.00">raw_fastqc_sample</text>
<text text-anchor="middle" x="1857" y="-658" font-family="sans" font-size="10.00">sample: pe1_2</text>
</g>
<!-- 22&#45;&gt;39 -->
<g id="edge71" class="edge"><title>22&#45;&gt;39</title>
<path fill="none" stroke="grey" stroke-width="2" d="M1857,-863.849C1857,-826.832 1857,-739.181 1857,-694.386"/>
<polygon fill="grey" stroke="grey" stroke-width="2" points="1860.5,-694.232 1857,-684.232 1853.5,-694.232 1860.5,-694.232"/>
</g>
<!-- 23&#45;&gt;6 -->
<g id="edge24" class="edge"><title>23&#45;&gt;6</title>
<path fill="none" stroke="grey" stroke-width="2" d="M1728.43,-647.997C1724.64,-621.399 1718,-568.303 1718,-523 1718,-523 1718,-523 1718,-161 1718,-101.17 1671.89,-95.8143 1617,-72 1524.82,-32.0055 1214.42,-21.9558 1106.42,-19.6411"/>
<polygon fill="grey" stroke="grey" stroke-width="2" points="1106.39,-16.1398 1096.32,-19.4348 1106.25,-23.1384 1106.39,-16.1398"/>
</g>
<!-- 24 -->
<g id="node25" class="node"><title>24</title>
<path fill="none" stroke="#59d856" stroke-width="2" d="M1530,-468C1530,-468 1484,-468 1484,-468 1478,-468 1472,-462 1472,-456 1472,-456 1472,-444 1472,-444 1472,-438 1478,-432 1484,-432 1484,-432 1530,-432 1530,-432 1536,-432 1542,-438 1542,-444 1542,-444 1542,-456 1542,-456 1542,-462 1536,-468 1530,-468"/>
<text text-anchor="middle" x="1507" y="-453" font-family="sans" font-size="10.00">qc_fastqc</text>
<text text-anchor="middle" x="1507" y="-442" font-family="sans" font-size="10.00">pair: pe_pe</text>
</g>
<!-- 24&#45;&gt;6 -->
<g id="edge17" class="edge"><title>24&#45;&gt;6</title>
<path fill="none" stroke="grey" stroke-width="2" d="M1498.7,-431.971C1486.72,-405.77 1466,-353.701 1466,-307 1466,-307 1466,-307 1466,-161 1466,-85.0766 1205.32,-38.958 1106.43,-24.194"/>
<polygon fill="grey" stroke="grey" stroke-width="2" points="1106.69,-20.6943 1096.29,-22.705 1105.67,-27.6201 1106.69,-20.6943"/>
</g>
<!-- 25 -->
<g id="node26" class="node"><title>25</title>
<path fill="none" stroke="#d86656" stroke-width="2" d="M1158.5,-540C1158.5,-540 1063.5,-540 1063.5,-540 1057.5,-540 1051.5,-534 1051.5,-528 1051.5,-528 1051.5,-516 1051.5,-516 1051.5,-510 1057.5,-504 1063.5,-504 1063.5,-504 1158.5,-504 1158.5,-504 1164.5,-504 1170.5,-510 1170.5,-516 1170.5,-516 1170.5,-528 1170.5,-528 1170.5,-534 1164.5,-540 1158.5,-540"/>
<text text-anchor="middle" x="1111" y="-525" font-family="sans" font-size="10.00">diginorm_filter_abund</text>
<text text-anchor="middle" x="1111" y="-514" font-family="sans" font-size="10.00">pair: se</text>
</g>
<!-- 25&#45;&gt;21 -->
<g id="edge43" class="edge"><title>25&#45;&gt;21</title>
<path fill="none" stroke="grey" stroke-width="2" d="M1111,-503.871C1111,-479.67 1111,-435.211 1111,-406.393"/>
<polygon fill="grey" stroke="grey" stroke-width="2" points="1114.5,-406.189 1111,-396.189 1107.5,-406.189 1114.5,-406.189"/>
</g>
<!-- 26&#45;&gt;6 -->
<g id="edge13" class="edge"><title>26&#45;&gt;6</title>
<path fill="none" stroke="grey" stroke-width="2" d="M532.409,-287.863C570.277,-244.061 677.727,-127.559 794,-72 872.967,-34.2671 976.843,-23.3937 1031.56,-20.2632"/>
<polygon fill="grey" stroke="grey" stroke-width="2" points="1032.02,-23.7443 1041.82,-19.7347 1031.66,-16.7535 1032.02,-23.7443"/>
</g>
<!-- 27&#45;&gt;18 -->
<g id="edge39" class="edge"><title>27&#45;&gt;18</title>
<path fill="none" stroke="grey" stroke-width="2" d="M1242.98,-575.697C1243.86,-567.983 1244.92,-558.712 1245.9,-550.112"/>
<polygon fill="grey" stroke="grey" stroke-width="2" points="1249.39,-550.437 1247.05,-540.104 1242.43,-549.642 1249.39,-550.437"/>
</g>
<!-- 28 -->
<g id="node29" class="node"><title>28</title>
<path fill="none" stroke="#567bd8" stroke-width="2" d="M1044.25,-180C1044.25,-180 975.75,-180 975.75,-180 969.75,-180 963.75,-174 963.75,-168 963.75,-168 963.75,-156 963.75,-156 963.75,-150 969.75,-144 975.75,-144 975.75,-144 1044.25,-144 1044.25,-144 1050.25,-144 1056.25,-150 1056.25,-156 1056.25,-156 1056.25,-168 1056.25,-168 1056.25,-174 1050.25,-180 1044.25,-180"/>
<text text-anchor="middle" x="1010" y="-165" font-family="sans" font-size="10.00">diginorm_fastqc</text>
<text text-anchor="middle" x="1010" y="-154" font-family="sans" font-size="10.00">pair: pe_pe</text>
</g>
<!-- 28&#45;&gt;6 -->
<g id="edge9" class="edge"><title>28&#45;&gt;6</title>
<path fill="none" stroke="grey" stroke-width="2" d="M1017.12,-143.871C1027.26,-119.457 1045.97,-74.4258 1057.93,-45.6351"/>
<polygon fill="grey" stroke="grey" stroke-width="2" points="1061.25,-46.7668 1061.86,-36.1893 1054.79,-44.0809 1061.25,-46.7668"/>
</g>
<!-- 29&#45;&gt;12 -->
<g id="edge30" class="edge"><title>29&#45;&gt;12</title>
<path fill="none" stroke="grey" stroke-width="2" d="M966.966,-431.697C957.455,-423.05 945.793,-412.449 935.43,-403.027"/>
<polygon fill="grey" stroke="grey" stroke-width="2" points="937.569,-400.241 927.815,-396.104 932.86,-405.421 937.569,-400.241"/>
</g>
<!-- 29&#45;&gt;28 -->
<g id="edge51" class="edge"><title>29&#45;&gt;28</title>
<path fill="none" stroke="grey" stroke-width="2" d="M987.429,-431.966C991.43,-384.291 1002.77,-249.185 1007.68,-190.63"/>
<polygon fill="grey" stroke="grey" stroke-width="2" points="1011.2,-190.564 1008.55,-180.306 1004.22,-189.979 1011.2,-190.564"/>
</g>
<!-- 29&#45;&gt;37 -->
<g id="edge69" class="edge"><title>29&#45;&gt;37</title>
<path fill="none" stroke="grey" stroke-width="2" d="M1062.41,-431.966C1108.09,-421.783 1166.24,-408.818 1213.59,-398.264"/>
<polygon fill="grey" stroke="grey" stroke-width="2" points="1214.52,-401.642 1223.52,-396.05 1213,-394.81 1214.52,-401.642"/>
</g>
<!-- 30&#45;&gt;6 -->
<g id="edge16" class="edge"><title>30&#45;&gt;6</title>
<path fill="none" stroke="grey" stroke-width="2" d="M202.845,-647.612C208.397,-620.942 218,-568.268 218,-523 218,-523 218,-523 218,-161 218,-62.4876 325.487,-96.1238 421,-72 537.989,-42.452 911.532,-25.2919 1031.51,-20.4372"/>
<polygon fill="grey" stroke="grey" stroke-width="2" points="1031.82,-23.9279 1041.67,-20.0312 1031.54,-16.9335 1031.82,-23.9279"/>
</g>
<!-- 31 -->
<g id="node32" class="node"><title>31</title>
<path fill="none" stroke="#d87d56" stroke-width="2" d="M1070.25,-612C1070.25,-612 891.75,-612 891.75,-612 885.75,-612 879.75,-606 879.75,-600 879.75,-600 879.75,-588 879.75,-588 879.75,-582 885.75,-576 891.75,-576 891.75,-576 1070.25,-576 1070.25,-576 1076.25,-576 1082.25,-582 1082.25,-588 1082.25,-588 1082.25,-600 1082.25,-600 1082.25,-606 1076.25,-612 1070.25,-612"/>
<text text-anchor="middle" x="981" y="-591.5" font-family="sans" font-size="10.00">diginorm_normalize_by_median_pe_pe</text>
</g>
<!-- 31&#45;&gt;13 -->
<g id="edge31" class="edge"><title>31&#45;&gt;13</title>
<path fill="none" stroke="grey" stroke-width="2" d="M979.022,-575.697C978.141,-567.983 977.081,-558.712 976.099,-550.112"/>
<polygon fill="grey" stroke="grey" stroke-width="2" points="979.568,-549.642 974.955,-540.104 972.613,-550.437 979.568,-549.642"/>
</g>
<!-- 32&#45;&gt;1 -->
<g id="edge3" class="edge"><title>32&#45;&gt;1</title>
<path fill="none" stroke="grey" stroke-width="2" d="M823.899,-647.788C807.853,-637.523 787.174,-624.16 769,-612 745.638,-596.369 742.028,-588.795 717,-576 691.596,-563.012 662.269,-551.876 636.322,-543.212"/>
<polygon fill="grey" stroke="grey" stroke-width="2" points="637.151,-539.801 626.558,-540.014 634.972,-546.453 637.151,-539.801"/>
</g>
<!-- 32&#45;&gt;3 -->
<g id="edge6" class="edge"><title>32&#45;&gt;3</title>
<path fill="none" stroke="grey" stroke-width="2" d="M773.769,-653.586C704.163,-643.273 598.709,-627.582 497.398,-612.209"/>
<polygon fill="grey" stroke="grey" stroke-width="2" points="497.704,-608.715 487.292,-610.674 496.653,-615.636 497.704,-608.715"/>
</g>
<!-- 32&#45;&gt;13 -->
<g id="edge32" class="edge"><title>32&#45;&gt;13</title>
<path fill="none" stroke="grey" stroke-width="2" d="M841.593,-647.682C832.584,-628.494 822.348,-597.435 837,-576 852.149,-553.838 878.05,-540.942 903.209,-533.438"/>
<polygon fill="grey" stroke="grey" stroke-width="2" points="904.434,-536.732 913.162,-530.726 902.594,-529.978 904.434,-536.732"/>
</g>
<!-- 32&#45;&gt;14 -->
<g id="edge33" class="edge"><title>32&#45;&gt;14</title>
<path fill="none" stroke="grey" stroke-width="2" d="M791.623,-647.966C756.938,-638.015 712.987,-625.406 676.67,-614.987"/>
<polygon fill="grey" stroke="grey" stroke-width="2" points="677.221,-611.504 666.643,-612.111 675.29,-618.233 677.221,-611.504"/>
</g>
<!-- 32&#45;&gt;18 -->
<g id="edge38" class="edge"><title>32&#45;&gt;18</title>
<path fill="none" stroke="grey" stroke-width="2" d="M928.199,-658.144C977.017,-651.4 1040.25,-638.105 1091,-612 1112.27,-601.06 1110.96,-589.057 1131,-576 1150.09,-563.564 1172.57,-552.662 1192.77,-544.031"/>
<polygon fill="grey" stroke="grey" stroke-width="2" points="1194.29,-547.188 1202.17,-540.104 1191.59,-540.729 1194.29,-547.188"/>
</g>
<!-- 32&#45;&gt;19 -->
<g id="edge40" class="edge"><title>32&#45;&gt;19</title>
<path fill="none" stroke="grey" stroke-width="2" d="M832.373,-647.583C822.076,-637.579 809.318,-624.544 799,-612 782.304,-591.704 765.587,-566.923 753.887,-548.669"/>
<polygon fill="grey" stroke="grey" stroke-width="2" points="756.72,-546.602 748.41,-540.029 750.808,-550.349 756.72,-546.602"/>
</g>
<!-- 32&#45;&gt;25 -->
<g id="edge46" class="edge"><title>32&#45;&gt;25</title>
<path fill="none" stroke="grey" stroke-width="2" d="M849.541,-647.682C848.869,-627.602 851.093,-594.854 870,-576 924.996,-521.16 965.255,-557.167 1041,-540 1041.21,-539.952 1041.43,-539.903 1041.64,-539.854"/>
<polygon fill="grey" stroke="grey" stroke-width="2" points="1042.5,-543.249 1051.46,-537.593 1040.93,-536.428 1042.5,-543.249"/>
</g>
<!-- 32&#45;&gt;27 -->
<g id="edge49" class="edge"><title>32&#45;&gt;27</title>
<path fill="none" stroke="grey" stroke-width="2" d="M928.051,-651.17C987.595,-640.483 1070.64,-625.577 1136.22,-613.806"/>
<polygon fill="grey" stroke="grey" stroke-width="2" points="1136.96,-617.231 1146.18,-612.019 1135.72,-610.341 1136.96,-617.231"/>
</g>
<!-- 32&#45;&gt;31 -->
<g id="edge55" class="edge"><title>32&#45;&gt;31</title>
<path fill="none" stroke="grey" stroke-width="2" d="M882.802,-647.876C900.114,-638.554 921.721,-626.919 940.256,-616.939"/>
<polygon fill="grey" stroke="grey" stroke-width="2" points="941.931,-620.012 949.076,-612.19 938.612,-613.849 941.931,-620.012"/>
</g>
<!-- 32&#45;&gt;42 -->
<g id="edge75" class="edge"><title>32&#45;&gt;42</title>
<path fill="none" stroke="grey" stroke-width="2" d="M928.262,-658.249C1024.53,-649.514 1194.31,-633.049 1350.48,-612.021"/>
<polygon fill="grey" stroke="grey" stroke-width="2" points="1351.31,-615.441 1360.74,-610.629 1350.36,-608.504 1351.31,-615.441"/>
</g>
<!-- 33&#45;&gt;6 -->
<g id="edge10" class="edge"><title>33&#45;&gt;6</title>
<path fill="none" stroke="grey" stroke-width="2" d="M1580.14,-287.73C1574.37,-243.613 1552.61,-126.425 1480,-72 1421.37,-28.055 1195.85,-20.4876 1106.13,-19.2298"/>
<polygon fill="grey" stroke="grey" stroke-width="2" points="1106.17,-15.7302 1096.13,-19.1082 1106.09,-22.7297 1106.17,-15.7302"/>
</g>
<!-- 34&#45;&gt;6 -->
<g id="edge20" class="edge"><title>34&#45;&gt;6</title>
<path fill="none" stroke="grey" stroke-width="2" d="M345.982,-431.841C361.506,-405.892 388,-354.628 388,-307 388,-307 388,-307 388,-161 388,-28.4341 888.793,-18.8061 1031.48,-18.7533"/>
<polygon fill="grey" stroke="grey" stroke-width="2" points="1031.88,-22.2537 1041.88,-18.7667 1031.89,-15.2537 1031.88,-22.2537"/>
</g>
<!-- 35 -->
<g id="node36" class="node"><title>35</title>
<path fill="none" stroke="#56d88a" stroke-width="2" stroke-dasharray="5,2" d="M178.25,-900C178.25,-900 93.75,-900 93.75,-900 87.75,-900 81.75,-894 81.75,-888 81.75,-888 81.75,-876 81.75,-876 81.75,-870 87.75,-864 93.75,-864 93.75,-864 178.25,-864 178.25,-864 184.25,-864 190.25,-870 190.25,-876 190.25,-876 190.25,-888 190.25,-888 190.25,-894 184.25,-900 178.25,-900"/>
<text text-anchor="middle" x="136" y="-885" font-family="sans" font-size="10.00">raw_make_links_pe</text>
<text text-anchor="middle" x="136" y="-874" font-family="sans" font-size="10.00">sample: pe2</text>
</g>
<!-- 35&#45;&gt;2 -->
<g id="edge4" class="edge"><title>35&#45;&gt;2</title>
<path fill="none" stroke="grey" stroke-width="2" d="M136,-863.951C136,-837.292 136,-784.115 136,-739 136,-739 136,-739 136,-377 136,-336.996 136,-290.653 136,-262.08"/>
<polygon fill="grey" stroke="grey" stroke-width="2" points="139.5,-262.049 136,-252.049 132.5,-262.049 139.5,-262.049"/>
</g>
<!-- 35&#45;&gt;5 -->
<g id="edge8" class="edge"><title>35&#45;&gt;5</title>
<path fill="none" stroke="grey" stroke-width="2" d="M190.555,-865.725C228.515,-855.096 279.344,-840.864 319.652,-829.578"/>
<polygon fill="grey" stroke="grey" stroke-width="2" points="320.708,-832.916 329.394,-826.85 318.821,-826.176 320.708,-832.916"/>
</g>
<!-- 35&#45;&gt;8 -->
<g id="edge26" class="edge"><title>35&#45;&gt;8</title>
<path fill="none" stroke="grey" stroke-width="2" d="M126.109,-863.871C111.887,-839.244 85.5513,-793.638 68.9474,-764.885"/>
<polygon fill="grey" stroke="grey" stroke-width="2" points="71.9579,-763.099 63.9262,-756.189 65.896,-766.599 71.9579,-763.099"/>
</g>
<!-- 36&#45;&gt;16 -->
<g id="edge37" class="edge"><title>36&#45;&gt;16</title>
<path fill="none" stroke="grey" stroke-width="2" d="M888.494,-287.697C888.715,-279.983 888.98,-270.712 889.225,-262.112"/>
<polygon fill="grey" stroke="grey" stroke-width="2" points="892.724,-262.2 889.511,-252.104 885.727,-262 892.724,-262.2"/>
</g>
<!-- 37&#45;&gt;36 -->
<g id="edge64" class="edge"><title>37&#45;&gt;36</title>
<path fill="none" stroke="grey" stroke-width="2" d="M1211.33,-361.6C1208.18,-361.059 1205.06,-360.524 1202,-360 1128.7,-347.456 1045.74,-333.462 983.506,-323.005"/>
<polygon fill="grey" stroke="grey" stroke-width="2" points="983.753,-319.497 973.311,-321.292 982.593,-326.4 983.753,-319.497"/>
</g>
<!-- 43 -->
<g id="node44" class="node"><title>43</title>
<path fill="none" stroke="#567bd8" stroke-width="2" d="M1244.25,-108C1244.25,-108 1175.75,-108 1175.75,-108 1169.75,-108 1163.75,-102 1163.75,-96 1163.75,-96 1163.75,-84 1163.75,-84 1163.75,-78 1169.75,-72 1175.75,-72 1175.75,-72 1244.25,-72 1244.25,-72 1250.25,-72 1256.25,-78 1256.25,-84 1256.25,-84 1256.25,-96 1256.25,-96 1256.25,-102 1250.25,-108 1244.25,-108"/>
<text text-anchor="middle" x="1210" y="-93" font-family="sans" font-size="10.00">diginorm_fastqc</text>
<text text-anchor="middle" x="1210" y="-82" font-family="sans" font-size="10.00">pair: pe_se</text>
</g>
<!-- 37&#45;&gt;43 -->
<g id="edge76" class="edge"><title>37&#45;&gt;43</title>
<path fill="none" stroke="grey" stroke-width="2" d="M1294.64,-359.966C1279.57,-312.093 1236.77,-176.06 1218.47,-117.904"/>
<polygon fill="grey" stroke="grey" stroke-width="2" points="1221.79,-116.795 1215.45,-108.306 1215.11,-118.896 1221.79,-116.795"/>
</g>
<!-- 38&#45;&gt;24 -->
<g id="edge45" class="edge"><title>38&#45;&gt;24</title>
<path fill="none" stroke="grey" stroke-width="2" d="M1169.43,-729.35C1278.16,-713.564 1507.4,-673.613 1554,-612 1584.8,-571.283 1551.36,-510.818 1527.23,-476.755"/>
<polygon fill="grey" stroke="grey" stroke-width="2" points="1529.77,-474.293 1521.04,-468.289 1524.12,-478.426 1529.77,-474.293"/>
</g>
<!-- 38&#45;&gt;31 -->
<g id="edge54" class="edge"><title>38&#45;&gt;31</title>
<path fill="none" stroke="grey" stroke-width="2" d="M1096.2,-719.871C1073.18,-694.924 1030.31,-648.45 1003.85,-619.773"/>
<polygon fill="grey" stroke="grey" stroke-width="2" points="1006.21,-617.166 996.858,-612.189 1001.07,-621.913 1006.21,-617.166"/>
</g>
<!-- 38&#45;&gt;32 -->
<g id="edge56" class="edge"><title>38&#45;&gt;32</title>
<path fill="none" stroke="grey" stroke-width="2" d="M1054.72,-721.638C1016.38,-711.355 965.57,-697.728 924.285,-686.655"/>
<polygon fill="grey" stroke="grey" stroke-width="2" points="925.116,-683.254 914.551,-684.044 923.302,-690.015 925.116,-683.254"/>
</g>
<!-- 39&#45;&gt;6 -->
<g id="edge23" class="edge"><title>39&#45;&gt;6</title>
<path fill="none" stroke="grey" stroke-width="2" d="M1843,-647.824C1823.63,-622.257 1791,-571.934 1791,-523 1791,-523 1791,-523 1791,-161 1791,-20.1685 1255.44,-16.5909 1106.84,-18.309"/>
<polygon fill="grey" stroke="grey" stroke-width="2" points="1106.37,-14.8147 1096.42,-18.4459 1106.47,-21.8141 1106.37,-14.8147"/>
</g>
<!-- 40&#45;&gt;6 -->
<g id="edge15" class="edge"><title>40&#45;&gt;6</title>
<path fill="none" stroke="grey" stroke-width="2" d="M951.162,-71.8761C976.007,-60.7276 1008.22,-46.2715 1032.69,-35.2929"/>
<polygon fill="grey" stroke="grey" stroke-width="2" points="1034.3,-38.4079 1041.99,-31.1206 1031.43,-32.0214 1034.3,-38.4079"/>
</g>
<!-- 41&#45;&gt;36 -->
<g id="edge66" class="edge"><title>41&#45;&gt;36</title>
<path fill="none" stroke="grey" stroke-width="2" d="M631.079,-362.008C634.094,-361.324 637.079,-360.652 640,-360 691.75,-348.446 749.696,-336.033 796.555,-326.126"/>
<polygon fill="grey" stroke="grey" stroke-width="2" points="797.318,-329.542 806.379,-324.052 795.872,-322.693 797.318,-329.542"/>
</g>
<!-- 42&#45;&gt;25 -->
<g id="edge47" class="edge"><title>42&#45;&gt;25</title>
<path fill="none" stroke="grey" stroke-width="2" d="M1360.52,-576.23C1310.13,-566.811 1246.46,-554.457 1180.9,-540.145"/>
<polygon fill="grey" stroke="grey" stroke-width="2" points="1181.31,-536.652 1170.8,-537.926 1179.81,-543.489 1181.31,-536.652"/>
</g>
<!-- 43&#45;&gt;6 -->
<g id="edge11" class="edge"><title>43&#45;&gt;6</title>
<path fill="none" stroke="grey" stroke-width="2" d="M1175.51,-71.8761C1154.2,-61.2987 1126.9,-47.7439 1105.27,-37.0065"/>
<polygon fill="grey" stroke="grey" stroke-width="2" points="1106.59,-33.7555 1096.08,-32.4436 1103.48,-40.0253 1106.59,-33.7555"/>
</g>
<!-- 44&#45;&gt;6 -->
<g id="edge22" class="edge"><title>44&#45;&gt;6</title>
<path fill="none" stroke="grey" stroke-width="2" d="M1636.05,-143.914C1629.04,-123.091 1614.08,-88.6326 1588,-72 1507.99,-20.9711 1211.21,-17.9706 1106.15,-18.5616"/>
<polygon fill="grey" stroke="grey" stroke-width="2" points="1106,-15.0625 1096.02,-18.6334 1106.05,-22.0623 1106,-15.0625"/>
</g>
<!-- 45&#45;&gt;6 -->
<g id="edge18" class="edge"><title>45&#45;&gt;6</title>
<path fill="none" stroke="grey" stroke-width="2" d="M739.179,-287.838C743.124,-244.487 759.725,-129.914 827,-72 857.365,-45.8601 971.713,-29.6961 1031.72,-22.8329"/>
<polygon fill="grey" stroke="grey" stroke-width="2" points="1032.36,-26.2833 1041.91,-21.6971 1031.58,-19.3264 1032.36,-26.2833"/>
</g>
</g>
</svg>
